# xmcd
#
# Track frame offsets:
#	150
#	16161
#	30475
#	39465
#	55375
#	75710
#	87564
#	102562
#	119682
#	133308
#	147388
#	159717
#
# Disc length: 2462 seconds
#
# Revision: 1
# Processed by: cddbd v1.5.2PL0 Copyright (c) Steve Scherf et al.
# Submitted via: audiograbber 1.83.01
#
DISCID=aa099c0c
DTITLE=Disturbing Foresights - De-Grunged
DYEAR=2008
DGENRE=Punk
TTITLE0=Work it out
TTITLE1=Brainless Brian
TTITLE2=Positive
TTITLE3=Shadow
TTITLE4=Genepharm
TTITLE5=Going to the pub
TTITLE6=N.P.M. (instrume(n)tal)
TTITLE7=Robin Hood
TTITLE8=This l's 4 u
TTITLE9=Perfect world
TTITLE10=Chemical century
TTITLE11=Lonely
EXTD=
EXTT0=
EXTT1=
EXTT2=
EXTT3=
EXTT4=
EXTT5=
EXTT6=
EXTT7=
EXTT8=
EXTT9=
EXTT10=
EXTT11=
PLAYORDER=
